HIERARCHY
ROOT SpineBase
{
  OFFSET 0.000000 0.000000 0.000000
  CHANNELS 6 Xposition Yposition Zposition Zrotation Xrotation Yrotation
  JOINT SpineMid
  {
    OFFSET -0.000000 27.642872 -0.000000
    CHANNELS 3 Zrotation Xrotation Yrotation
    JOINT SpineShoulder
    {
      OFFSET -0.130246 20.611544 -0.603527
      CHANNELS 3 Zrotation Xrotation Yrotation
      JOINT Neck
      {
        OFFSET -0.082389 6.849046 -0.479544
        CHANNELS 3 Zrotation Xrotation Yrotation
        JOINT Head
        {
          OFFSET 2.553159 12.358310 0.636915
          CHANNELS 3 Zrotation Xrotation Yrotation
          End Site
          {
            OFFSET 0 0 0
          }
        }
      }
      JOINT ShoulderLeft
      {
        OFFSET -11.997792 -2.618973 -7.178485
        CHANNELS 3 Zrotation Xrotation Yrotation
        JOINT ElbowLeft
        {
          OFFSET -4.121708 -20.506678 -3.025216
          CHANNELS 3 Zrotation Xrotation Yrotation
          JOINT WristLeft
          {
            OFFSET 1.559658 -20.411535 -5.288188
            CHANNELS 3 Zrotation Xrotation Yrotation
            JOINT HandLeft
            {
              OFFSET 1.106917 -6.566941 -1.015340
              CHANNELS 3 Zrotation Xrotation Yrotation
              JOINT HandTipLeft
              {
                OFFSET 0.533300 -6.319007 -0.942829
                CHANNELS 3 Zrotation Xrotation Yrotation
                End Site
                {
                  OFFSET 0 0 0
                }
              }
              JOINT ThumbLeft
              {
                OFFSET -2.287777 -0.128602 -3.283895
                CHANNELS 3 Zrotation Xrotation Yrotation
                End Site
                {
                  OFFSET 0 0 0
                }
              }
            }
          }
        }
      }
      JOINT ShoulderRight
      {
        OFFSET 12.833787 -2.985972 4.483561
        CHANNELS 3 Zrotation Xrotation Yrotation
        JOINT ElbowRight
        {
          OFFSET 0.933535 -20.858175 0.120799
          CHANNELS 3 Zrotation Xrotation Yrotation
          JOINT WristRight
          {
            OFFSET 1.507404 -20.662474 -3.798772
            CHANNELS 3 Zrotation Xrotation Yrotation
            JOINT HandRight
            {
              OFFSET -0.294928 -10.177157 -1.502767
              CHANNELS 3 Zrotation Xrotation Yrotation
              JOINT HandTipRight
              {
                OFFSET 0.572415 -6.262660 0.324674
                CHANNELS 3 Zrotation Xrotation Yrotation
                End Site
                {
                  OFFSET 0 0 0
                }
              }
              JOINT ThumbRight
              {
                OFFSET -2.977931 -0.869774 -2.339162
                CHANNELS 3 Zrotation Xrotation Yrotation
                End Site
                {
                  OFFSET 0 0 0
                }
              }
            }
          }
        }
      }
    }
  }
  JOINT HipLeft
  {
    OFFSET -5.023940 1.046430 -5.417012
    CHANNELS 3 Zrotation Xrotation Yrotation
    JOINT KneeLeft
    {
      OFFSET -6.375311 -28.064802 -0.190602
      CHANNELS 3 Zrotation Xrotation Yrotation
      JOINT AnkleLeft
      {
        OFFSET 0.427845 -33.718245 8.806890
        CHANNELS 3 Zrotation Xrotation Yrotation
        JOINT FootLeft
        {
          OFFSET 2.862199 -2.211131 -9.527749
          CHANNELS 3 Zrotation Xrotation Yrotation
          End Site
          {
            OFFSET 0 0 0
          }
        }
      }
    }
  }
  JOINT HipRight
  {
    OFFSET 4.698911 0.532911 -0.676962
    CHANNELS 3 Zrotation Xrotation Yrotation
    JOINT KneeRight
    {
      OFFSET -3.874650 -29.331589 1.423190
      CHANNELS 3 Zrotation Xrotation Yrotation
      JOINT AnkleRight
      {
        OFFSET -5.555169 -33.022085 6.131598
        CHANNELS 3 Zrotation Xrotation Yrotation
        JOINT FootRight
        {
          OFFSET 2.392221 -2.407698 -9.315863
          CHANNELS 3 Zrotation Xrotation Yrotation
          End Site
          {
            OFFSET 0 0 0
          }
        }
      }
    }
  }
}
MOTION
Frames: 9
Frame Time: 0.033333
21.864650 66.845593 364.503295 0.000000 -0.000000 -25.989997 -0.000000 0.000000 25.989997 -0.000000 0.000000 0.000000 -0.000000 0.000000 0.000000 0.000000 0.000000 0.000000 -0.000000 0.000000 0.000000 -0.000000 0.000000 0.000000 -0.000000 0.000000 0.000000 -0.000000 0.000000 0.000000 0.000000 0.000000 0.000000 0.000000 0.000000 0.000000 -0.000000 0.000000 0.000000 -0.000000 0.000000 0.000000 -0.000000 0.000000 0.000000 -0.000000 0.000000 0.000000 0.000000 0.000000 0.000000 0.000000 0.000000 0.000000 -0.000000 0.000000 25.989997 -0.000000 0.000000 0.000000 -0.000000 0.000000 0.000000 0.000000 0.000000 0.000000 -0.000000 0.000000 25.989997 -0.000000 0.000000 0.000000 -0.000000 0.000000 0.000000 0.000000 0.000000 0.000000
21.884336 66.871584 364.448336 0.033107 0.092648 -26.053511 0.010949 -0.097774 26.053494 -0.000000 0.000000 0.000000 -0.000000 0.000000 0.000000 0.000000 0.000000 0.000000 -0.000000 0.000000 0.000000 -0.000000 0.000000 0.000000 -0.000000 0.000000 0.000000 0.248284 -0.991376 -0.118699 0.000000 0.000000 0.000000 0.000000 0.000000 0.000000 -0.000000 0.000000 0.000000 -0.000000 0.000000 0.000000 -0.000000 0.000000 0.000000 0.852536 3.171162 0.310755 0.000000 0.000000 0.000000 0.000000 0.000000 0.000000 0.010949 -0.097774 26.053494 -0.000000 0.000000 0.000000 -0.000000 0.000000 0.000000 0.000000 0.000000 0.000000 0.010949 -0.097774 26.053494 -0.000000 0.000000 0.000000 -1.871038 -3.350489 4.426206 0.000000 0.000000 0.000000
21.903001 66.892901 364.409041 0.062091 0.167342 -26.106837 0.017882 -0.177592 26.106774 -0.000000 0.000000 0.000000 -0.000000 0.000000 0.000000 0.000000 0.000000 0.000000 -0.000000 0.000000 0.000000 -0.000000 0.000000 0.000000 0.764128 0.925489 0.031610 -0.237780 -2.769537 -0.261862 0.000000 0.000000 0.000000 0.000000 0.000000 0.000000 -0.000000 0.000000 0.000000 -0.000000 0.000000 0.000000 -0.150884 -1.083968 0.052337 1.664439 6.877008 0.448507 0.000000 0.000000 0.000000 0.000000 0.000000 0.000000 0.017882 -0.177592 26.106774 -0.000000 0.000000 0.000000 -0.000000 0.000000 0.000000 0.000000 0.000000 0.000000 0.017882 -0.177592 26.106774 -0.000000 0.000000 0.000000 -3.181449 -6.132021 7.886440 0.000000 0.000000 0.000000
21.920645 66.909542 364.385411 0.086946 0.224059 -26.150312 0.020703 -0.239444 26.150185 -0.000000 0.000000 0.000000 -0.000000 0.000000 0.000000 0.000000 0.000000 0.000000 -0.000000 0.000000 0.000000 -0.000000 0.000000 0.000000 1.054628 1.263522 0.038168 -0.218176 -3.814215 -0.365740 0.000000 0.000000 0.000000 0.000000 0.000000 0.000000 -0.434628 0.782560 0.035484 0.434184 -0.782806 -0.029549 -0.220386 -1.512189 0.073598 2.189012 9.334725 0.553047 0.000000 0.000000 0.000000 0.000000 0.000000 0.000000 0.020703 -0.239444 26.150185 -0.000000 0.000000 0.000000 -0.000000 0.000000 0.000000 0.000000 0.000000 0.000000 0.020703 -0.239444 26.150185 -0.000000 0.000000 0.000000 -3.960698 -8.032076 10.145103 0.000000 0.000000 0.000000
21.937268 66.921509 364.377444 0.107665 0.262781 -26.184208 0.019337 -0.283322 26.184009 -0.000000 0.000000 0.000000 -0.000000 0.000000 0.000000 0.000000 0.000000 0.000000 -0.000000 0.000000 0.000000 -0.000000 0.000000 0.000000 1.287022 1.521984 0.040305 -0.108832 -4.627137 -0.450954 0.000000 0.000000 0.000000 0.000000 0.000000 0.000000 -0.528381 0.946764 0.043691 0.527731 -0.947127 -0.034964 -0.283112 -1.844525 0.090914 2.493241 11.070292 0.611314 0.000000 0.000000 0.000000 0.000000 0.000000 0.000000 0.019337 -0.283322 26.184009 0.199145 -0.920860 0.041841 -0.198498 0.921000 -0.038646 0.000000 0.000000 0.000000 0.019337 -0.283322 26.184009 -0.000000 0.000000 0.000000 -4.266315 -8.859867 11.068060 0.000000 0.000000 0.000000
21.952871 66.928801 364.385142 0.124244 0.283497 -26.208731 0.013733 -0.309222 26.208461 -0.000000 0.000000 0.000000 -0.000000 0.000000 0.000000 0.000000 0.000000 0.000000 -0.000000 0.000000 0.000000 -0.000000 0.000000 0.000000 1.462941 1.702855 0.038934 0.088174 -5.205597 -0.518127 0.000000 0.000000 0.000000 0.000000 0.000000 0.000000 -0.596594 1.062775 0.049660 0.595776 -1.063234 -0.038598 -0.337394 -2.072777 0.104060 2.563682 12.046077 0.639655 0.000000 0.000000 0.000000 0.000000 0.000000 0.000000 0.013733 -0.309222 26.208461 0.233824 -1.046941 0.049804 -0.232953 1.047135 -0.045539 0.000000 0.000000 0.000000 0.144394 0.564461 26.136591 -1.219597 -1.170367 -0.002169 -3.400723 -8.101922 10.692970 0.000000 0.000000 0.000000
21.935208 66.930424 364.392776 0.095646 0.318191 -26.193499 0.054627 -0.327734 26.193390 -0.000000 0.000000 0.000000 -0.000000 0.000000 0.000000 0.000000 0.000000 0.000000 -0.000000 0.000000 0.000000 -0.000000 0.000000 0.000000 1.492083 2.042260 0.086543 0.479048 -6.092274 -0.638967 0.000000 0.000000 0.000000 0.000000 0.000000 0.000000 -0.690932 1.227357 0.058353 0.689840 -1.227971 -0.043559 -0.442210 -2.377100 0.125390 2.407357 11.211851 0.534975 0.000000 0.000000 0.000000 0.000000 0.000000 0.000000 0.054627 -0.327734 26.193390 0.183672 -1.113368 0.035539 -0.183016 1.113476 -0.031976 0.000000 0.000000 0.000000 0.101054 0.604831 26.107363 -1.145274 -1.390473 0.036895 -2.170172 -5.024540 6.919148 0.000000 0.000000 0.000000
21.903585 66.925226 364.411052 0.037140 0.331171 -26.157797 0.112659 -0.313627 26.157998 -0.000000 0.000000 0.000000 -0.000000 0.000000 0.000000 0.000000 0.000000 0.000000 -0.000000 0.000000 0.000000 -0.000000 0.000000 0.000000 1.309315 1.732815 0.069559 1.501753 -5.123536 -0.648400 0.000000 0.000000 0.000000 0.000000 0.000000 0.000000 -0.708729 1.340019 0.064183 0.707421 -1.340710 -0.047617 -0.536042 -2.117492 0.130957 0.903562 8.298665 0.401208 0.000000 0.000000 0.000000 0.000000 0.000000 0.000000 0.112659 -0.313627 26.157998 0.171345 -1.147274 0.031827 -0.170742 1.147364 -0.028402 0.000000 0.000000 0.000000 0.112659 -0.313627 26.157998 -0.644970 -0.598047 -0.022476 0.644770 0.598263 0.015743 0.000000 0.000000 0.000000
21.926892 66.918745 364.469259 0.055980 0.286443 -26.198964 0.076233 -0.281730 26.199011 -0.000000 0.000000 0.000000 -0.000000 0.000000 0.000000 0.000000 0.000000 0.000000 -0.000000 0.000000 0.000000 -0.000000 0.000000 0.000000 1.254769 1.457804 0.035627 2.234470 -4.568337 -0.668192 0.000000 0.000000 0.000000 0.000000 0.000000 0.000000 -0.640262 1.192473 0.056345 0.639227 -1.193027 -0.043027 -0.467897 -2.344496 0.127839 0.412045 8.368748 0.407430 0.000000 0.000000 0.000000 0.000000 0.000000 0.000000 0.076233 -0.281730 26.199011 0.263102 -1.174432 0.056361 -0.262002 1.174678 -0.050979 0.000000 0.000000 0.000000 -0.019737 0.688239 26.095304 -0.834851 -1.641114 0.120558 2.214629 2.900676 -4.200188 0.000000 0.000000 0.000000
